{"title":"Ultimate Muscle 1-77","uid":7963158,"size":5202251101,"categoryP":"video","categoryS":"tv_shows","magnet":"?xt=urn:btih:bb807276e226141548f118315387eae9922b4900&amp;dn=Ultimate+Muscle+1-77&amp;tr=udp%3A%2F%2Ftracker.openbittorrent.com%3A80&amp;tr=udp%3A%2F%2Fopen.demonii.com%3A1337&amp;tr=udp%3A%2F%2Ftracker.coppersurfer.tk%3A6969&amp;tr=udp%3A%2F%2Fexodus.desync.com%3A6969","seeders":2,"leechers":3,"uploader":"guru9192","files":77,"time":1356627288,"description":"General\n\nFormat                           : Flash Video\nFile size                        : 64.5 MiB\nDuration                         : 21mn 31s\nOverall bit rate                 : 419 Kbps\nTagged date                      : UTC 2012-03-03 02:02:52\n\nVideo\n\nFormat                           : AVC\nFormat/Info                      : Advanced Video Codec\nFormat profile                   : &lt;a class=&quot;__cf_email__&quot; href=&quot;/cdn-cgi/l/email-protection&quot; data-cfemail=&quot;327a5b555a727e061c03&quot;&gt;[email&amp;#160;protected]&lt;/a&gt;&lt;script cf-hash='f9e31' type=&quot;text/javascript&quot;&gt;\n/* &lt;![CDATA[ */!function(){try{var t=&quot;currentScript&quot;in document?document.currentScript:function(){for(var t=document.getElementsByTagName(&quot;script&quot;),e=t.length;e--;)if(t[e].getAttribute(&quot;cf-hash&quot;))return t[e]}();if(t&amp;&amp;t.previousSibling){var e,r,n,i,c=t.previousSibling,a=c.getAttribute(&quot;data-cfemail&quot;);if(a){for(e=&quot;&quot;,r=parseInt(a.substr(0,2),16),n=2;a.length-n;n+=2)i=parseInt(a.substr(n,2),16)^r,e+=String.fromCharCode(i);e=document.createTextNode(e),c.parentNode.replaceChild(e,c)}}}catch(u){}}();/* ]]&gt; */&lt;/script&gt;\nFormat settings, CABAC           : Yes\nFormat settings, ReFrames        : 4 frames\nCodec ID                         : 7\nDuration                         : 21mn 30s\nBit rate                         : 326 Kbps\nWidth                            : 640 pixels\nHeight                           : 424 pixels\nDisplay aspect ratio             : 3:2\nFrame rate mode                  : Constant\nFrame rate                       : 58.000 fps\nColor space                      : YUV\nChroma subsampling               : 4:2:0\nBit depth                        : 8 bits\nScan type                        : Progressive\nBits/(Pixel*Frame)               : 0.021\nStream size                      : 51.0 MiB (79%)\n\nAudio\n\nFormat                           : AAC\nFormat/Info                      : Advanced Audio Codec\nFormat profile                   : LC\nCodec ID                         : 10\nDuration                         : 21mn 31s\nBit rate                         : 80.7 Kbps\nChannel(s)                       : 2 channels\nChannel positions                : Front: L R\nSampling rate                    : 44.1 KHz\nCompression mode                 : Lossy\nStream size                      : 13.0 MiB (20%)\n\nNice Quality...\nDownload and Enjoy...Keep Seeding..","torrent":{"xt":"urn:btih:bb807276e226141548f118315387eae9922b4900","amp;dn":"Ultimate+Muscle+1-77","amp;tr":["udp%3A%2F%2Ftracker.openbittorrent.com%3A80","udp%3A%2F%2Fopen.demonii.com%3A1337","udp%3A%2F%2Ftracker.coppersurfer.tk%3A6969","udp%3A%2F%2Fexodus.desync.com%3A6969"],"infoHash":"bb807276e226141548f118315387eae9922b4900","infoHashBuffer":{"type":"Buffer","data":[187,128,114,118,226,38,20,21,72,241,24,49,83,135,234,233,146,43,73,0]},"announce":[],"urlList":[]}}